<svg xmlns="http://www.w3.org/2000/svg" width="37.5" viewBox="0 0 37.5 37.5" height="37.5" version="1.0"><defs><clipPath id="a"><path d="M 0 0 L 37.007812 0 L 37.007812 37.007812 L 0 37.007812 Z M 0 0"/></clipPath></defs><path fill="#CBC7B7" d="M 18.746094 0.996094 C 8.957031 0.996094 1.003906 8.945312 1.003906 18.738281 C 1.003906 28.527344 8.957031 36.476562 18.746094 36.476562 C 28.535156 36.476562 36.488281 28.527344 36.488281 18.738281 C 36.488281 8.945312 28.535156 0.996094 18.746094 0.996094 Z M 18.421875 5.925781 C 19.550781 5.925781 20.625 6.097656 21.605469 6.429688 C 22.585938 6.765625 23.445312 7.246094 24.199219 7.890625 C 24.953125 8.535156 25.542969 9.316406 25.964844 10.242188 C 26.394531 11.15625 26.59375 12.195312 26.59375 13.324219 C 26.59375 15.347656 26.09375 16.910156 25.070312 18.027344 C 24.058594 19.136719 22.671875 19.871094 20.894531 20.238281 L 20.894531 20.886719 C 20.894531 21.402344 20.777344 21.867188 20.550781 22.265625 C 20.335938 22.652344 20.015625 22.953125 19.617188 23.179688 C 19.230469 23.394531 18.796875 23.503906 18.300781 23.503906 C 17.804688 23.503906 17.359375 23.394531 16.960938 23.179688 C 16.574219 22.953125 16.277344 22.652344 16.050781 22.265625 C 15.835938 21.867188 15.726562 21.402344 15.726562 20.886719 L 15.726562 18.230469 C 15.726562 17.683594 15.824219 17.246094 16.050781 16.953125 C 16.277344 16.664062 16.558594 16.472656 16.878906 16.367188 C 17.203125 16.257812 17.695312 16.140625 18.339844 16.019531 C 20.019531 15.707031 20.855469 14.863281 20.855469 13.488281 C 20.855469 12.925781 20.617188 12.425781 20.164062 11.988281 C 19.722656 11.535156 19.144531 11.316406 18.421875 11.316406 C 17.753906 11.316406 17.226562 11.445312 16.839844 11.703125 C 16.464844 11.960938 16.101562 12.34375 15.726562 12.839844 C 15.359375 13.320312 14.996094 13.695312 14.652344 13.953125 C 14.316406 14.199219 13.851562 14.316406 13.273438 14.316406 C 12.617188 14.316406 12.0625 14.0625 11.589844 13.566406 C 11.125 13.0625 10.898438 12.480469 10.898438 11.804688 C 10.898438 10.621094 11.28125 9.574219 12.054688 8.679688 C 12.832031 7.789062 13.792969 7.105469 14.953125 6.632812 C 16.117188 6.160156 17.269531 5.925781 18.421875 5.925781 Z M 18.257812 26.382812 C 18.765625 26.382812 19.238281 26.519531 19.679688 26.785156 C 20.121094 27.054688 20.453125 27.410156 20.710938 27.859375 C 20.980469 28.300781 21.117188 28.785156 21.117188 29.300781 C 21.117188 29.828125 20.980469 30.328125 20.710938 30.78125 C 20.453125 31.222656 20.109375 31.554688 19.660156 31.816406 C 19.21875 32.074219 18.753906 32.199219 18.257812 32.199219 C 17.765625 32.199219 17.292969 32.074219 16.839844 31.816406 C 16.398438 31.554688 16.035156 31.222656 15.765625 30.78125 C 15.507812 30.328125 15.378906 29.828125 15.378906 29.300781 C 15.378906 28.785156 15.507812 28.300781 15.765625 27.859375 C 16.035156 27.410156 16.398438 27.054688 16.839844 26.785156 C 17.28125 26.519531 17.753906 26.382812 18.257812 26.382812 Z M 18.257812 26.382812" fill-rule="evenodd"/><g clip-path="url(#a)"><path transform="matrix(.64879 0 0 .64879 -.779 -.908)" fill="none" d="M 30.093981 2.935313 C 15.005771 2.935313 2.747353 15.187709 2.747353 30.28194 C 2.747353 45.370149 15.005771 57.622546 30.093981 57.622546 C 45.18219 57.622546 57.440608 45.370149 57.440608 30.28194 C 57.440608 15.187709 45.18219 2.935313 30.093981 2.935313 Z M 29.594251 10.533605 C 31.334272 10.533605 32.990002 10.798521 34.501231 11.310292 C 36.01246 11.828084 37.337044 12.568647 38.499065 13.562084 C 39.661086 14.555522 40.570231 15.759689 41.220481 17.186626 C 41.882773 18.595501 42.189836 20.197043 42.189836 21.937064 C 42.189836 25.055856 41.419169 27.464189 39.841711 29.186148 C 38.282315 30.896065 36.144919 32.027981 33.405439 32.59394 L 33.405439 33.593398 C 33.405439 34.388148 33.224814 35.104628 32.875606 35.718753 C 32.54446 36.314815 32.050752 36.778419 31.436627 37.127628 C 30.840564 37.458774 30.172251 37.627357 29.407606 37.627357 C 28.64296 37.627357 27.956585 37.458774 27.34246 37.127628 C 26.746397 36.778419 26.288814 36.314815 25.939605 35.718753 C 25.608459 35.104628 25.439876 34.388148 25.439876 33.593398 L 25.439876 29.499231 C 25.439876 28.656315 25.590397 27.981981 25.939605 27.530419 C 26.288814 27.084877 26.722314 26.789856 27.216022 26.627294 C 27.715751 26.45871 28.474376 26.278085 29.467814 26.091439 C 32.056772 25.609773 33.345231 24.309273 33.345231 22.189939 C 33.345231 21.322939 32.97796 20.552272 32.279543 19.877939 C 31.599189 19.179522 30.708106 18.842355 29.594251 18.842355 C 28.564689 18.842355 27.751876 19.041043 27.155814 19.438418 C 26.577814 19.835793 26.017876 20.425835 25.439876 21.190481 C 24.873918 21.931043 24.31398 22.509043 23.784147 22.906418 C 23.266355 23.285731 22.549876 23.466356 21.658792 23.466356 C 20.647292 23.466356 19.792334 23.075002 19.063813 22.310356 C 18.347334 21.533668 17.998126 20.636564 17.998126 19.59496 C 17.998126 17.770647 18.588167 16.157064 19.780292 14.778293 C 20.978438 13.405543 22.459563 12.351897 24.247751 11.623376 C 26.041959 10.894855 27.818105 10.533605 29.594251 10.533605 Z M 29.341376 42.064711 C 30.124085 42.064711 30.852606 42.275441 31.53296 42.684857 C 32.213314 43.100295 32.725085 43.648191 33.12246 44.340587 C 33.537898 45.020941 33.748627 45.767524 33.748627 46.562274 C 33.748627 47.375087 33.537898 48.145754 33.12246 48.84417 C 32.725085 49.524525 32.195252 50.036295 31.502856 50.439691 C 30.822502 50.837066 30.106022 51.029733 29.341376 51.029733 C 28.582751 51.029733 27.85423 50.837066 27.155814 50.439691 C 26.475459 50.036295 25.915522 49.524525 25.500084 48.84417 C 25.102709 48.145754 24.904022 47.375087 24.904022 46.562274 C 24.904022 45.767524 25.102709 45.020941 25.500084 44.340587 C 25.915522 43.648191 26.475459 43.100295 27.155814 42.684857 C 27.836168 42.275441 28.564689 42.064711 29.341376 42.064711 Z M 29.341376 42.064711" stroke="#333" stroke-width="3.125"/></g></svg>