<svg xmlns="http://www.w3.org/2000/svg" width="37.5" viewBox="0 0 37.5 37.5" height="37.5" version="1.0"><defs><clipPath id="a"><path d="M 0 12.75 L 37.007812 12.75 L 37.007812 24.75 L 0 24.75 Z M 0 12.75"/></clipPath><clipPath id="b"><path d="M 0 12.75 L 37.007812 12.75 L 37.007812 24 L 0 24 Z M 0 12.75"/></clipPath></defs><g clip-path="url(#a)"><path fill="#FCD24F" d="M 37.5 18.15625 L 37.5 19.28125 C 37.5 22.296875 35.046875 24.75 32.03125 24.75 L 5.46875 24.75 C 2.445312 24.75 0 22.296875 0 19.28125 L 0 18.15625 C 0.0390625 15.164062 2.46875 12.75 5.46875 12.75 L 32.03125 12.75 C 35.03125 12.75 37.476562 15.164062 37.5 18.15625 Z M 37.5 18.15625 L 37.5 19.28125 C 37.5 22.296875 35.046875 24.75 32.03125 24.75 L 5.46875 24.75 C 2.445312 24.75 0 22.296875 0 19.28125 L 0 18.15625 C 0.0390625 15.164062 2.46875 12.75 5.46875 12.75 L 32.03125 12.75 C 35.03125 12.75 37.476562 15.164062 37.5 18.15625 Z M 37.5 18.15625"/></g><g clip-path="url(#b)"><path fill="#1F1347" d="M 32.03125 13.507812 C 34.628906 13.507812 36.742188 15.621094 36.742188 18.21875 C 36.742188 20.8125 34.628906 22.925781 32.03125 22.925781 L 5.460938 22.925781 C 2.863281 22.921875 0.757812 20.8125 0.757812 18.21875 C 0.757812 15.621094 2.863281 13.507812 5.460938 13.507812 L 32.03125 13.507812 M 32.03125 12.75 L 5.46875 12.75 C 2.445312 12.75 0 15.195312 0 18.21875 C 0 21.238281 2.445312 23.683594 5.46875 23.683594 L 32.03125 23.683594 C 35.046875 23.683594 37.5 21.238281 37.5 18.21875 C 37.5 15.195312 35.054688 12.75 32.03125 12.75 Z M 12.121094 20.136719 C 11.976562 20.054688 11.863281 19.941406 11.789062 19.800781 C 11.714844 19.65625 11.671875 19.492188 11.671875 19.3125 L 11.671875 19.175781 L 12.226562 19.117188 L 12.226562 19.261719 C 12.226562 19.394531 12.261719 19.507812 12.328125 19.589844 C 12.398438 19.671875 12.488281 19.710938 12.609375 19.710938 C 12.71875 19.710938 12.808594 19.671875 12.878906 19.605469 C 12.945312 19.539062 12.984375 19.453125 12.984375 19.335938 C 12.984375 19.207031 12.945312 19.085938 12.871094 18.984375 C 12.800781 18.871094 12.660156 18.710938 12.449219 18.511719 C 12.164062 18.238281 11.96875 18.015625 11.863281 17.835938 C 11.761719 17.65625 11.707031 17.460938 11.707031 17.242188 C 11.707031 16.957031 11.78125 16.726562 11.949219 16.550781 C 12.105469 16.378906 12.324219 16.296875 12.601562 16.296875 C 12.878906 16.296875 13.085938 16.378906 13.253906 16.558594 C 13.410156 16.734375 13.492188 16.964844 13.492188 17.25 L 13.492188 17.355469 L 12.9375 17.414062 L 12.9375 17.300781 C 12.9375 17.160156 12.914062 17.039062 12.855469 16.964844 C 12.800781 16.890625 12.71875 16.84375 12.613281 16.84375 C 12.511719 16.84375 12.433594 16.882812 12.375 16.933594 C 12.324219 16.996094 12.292969 17.085938 12.292969 17.210938 C 12.292969 17.332031 12.328125 17.453125 12.40625 17.558594 C 12.480469 17.664062 12.613281 17.828125 12.824219 18.039062 C 13.109375 18.324219 13.304688 18.554688 13.410156 18.726562 C 13.515625 18.90625 13.566406 19.085938 13.566406 19.304688 C 13.566406 19.492188 13.523438 19.648438 13.449219 19.792969 C 13.371094 19.933594 13.261719 20.046875 13.117188 20.128906 C 12.976562 20.210938 12.808594 20.25 12.628906 20.25 C 12.425781 20.257812 12.253906 20.210938 12.121094 20.136719 Z M 14.664062 16.359375 L 16.523438 16.359375 L 16.523438 16.90625 L 15.886719 16.90625 L 15.886719 20.199219 L 15.300781 20.199219 L 15.300781 16.90625 L 14.664062 16.90625 Z M 18.710938 19.351562 L 18.089844 19.351562 L 17.960938 20.203125 L 17.378906 20.203125 L 18.015625 16.359375 L 18.796875 16.359375 L 19.433594 20.203125 L 18.839844 20.203125 Z M 18.628906 18.796875 L 18.390625 17.191406 L 18.148438 18.796875 Z M 22.003906 20.203125 L 21.585938 18.613281 L 21.277344 18.613281 L 21.277344 20.203125 L 20.699219 20.203125 L 20.699219 16.359375 L 21.613281 16.359375 C 21.890625 16.359375 22.109375 16.441406 22.28125 16.613281 C 22.453125 16.785156 22.53125 17.003906 22.53125 17.28125 L 22.53125 17.699219 C 22.53125 17.878906 22.492188 18.03125 22.425781 18.164062 C 22.359375 18.300781 22.253906 18.414062 22.132812 18.488281 L 22.621094 20.203125 Z M 21.285156 18.066406 L 21.59375 18.066406 C 21.703125 18.066406 21.796875 18.03125 21.855469 17.976562 C 21.914062 17.917969 21.945312 17.828125 21.945312 17.714844 L 21.945312 17.265625 C 21.945312 17.152344 21.90625 17.0625 21.855469 17.003906 C 21.800781 16.941406 21.703125 16.914062 21.59375 16.914062 L 21.285156 16.914062 Z M 23.714844 16.359375 L 25.574219 16.359375 L 25.574219 16.90625 L 24.9375 16.90625 L 24.9375 20.199219 L 24.351562 20.199219 L 24.351562 16.90625 L 23.714844 16.90625 Z M 23.714844 16.359375"/></g></svg>